<svg xmlns="http://www.w3.org/2000/svg" xmlns:xlink="http://www.w3.org/1999/xlink" contentStyleType="text/css" data-diagram-type="DESCRIPTION" height="546px" preserveAspectRatio="none" style="width:1524px;height:546px;background:#FFFFFF;" version="1.1" viewBox="0 0 1524 546" width="1524px" zoomAndPan="magnify"><defs/><g><!--cluster Source Storage--><g class="cluster" data-entity="Source Storage" data-source-line="5" data-uid="ent0003" id="cluster_Source Storage"><path d="M13.5,317.1 L136.002,317.1 A3.75,3.75 0 0 1 138.502,319.6 L145.502,339.3969 L578.5,339.3969 A2.5,2.5 0 0 1 581,341.8969 L581,411.89 A2.5,2.5 0 0 1 578.5,414.39 L13.5,414.39 A2.5,2.5 0 0 1 11,411.89 L11,319.6 A2.5,2.5 0 0 1 13.5,317.1" fill="#FFFFFF" style="stroke:#000000;stroke-width:1;"/><line style="stroke:#000000;stroke-width:1;" x1="11" x2="145.502" y1="339.3969" y2="339.3969"/><text fill="#000000" font-family="Verdana" font-size="14" font-weight="bold" lengthAdjust="spacing" textLength="121.502" x="15" y="332.0951">Source Storage</text></g><!--cluster Scheduling--><g class="cluster" data-entity="Scheduling" data-source-line="11" data-uid="ent0007" id="cluster_Scheduling"><path d="M632.5,11 L720.918,11 A3.75,3.75 0 0 1 723.418,13.5 L730.418,33.2969 L825.5,33.2969 A2.5,2.5 0 0 1 828,35.7969 L828,105.8 A2.5,2.5 0 0 1 825.5,108.3 L632.5,108.3 A2.5,2.5 0 0 1 630,105.8 L630,13.5 A2.5,2.5 0 0 1 632.5,11" fill="#FFFFFF" style="stroke:#000000;stroke-width:1;"/><line style="stroke:#000000;stroke-width:1;" x1="630" x2="730.418" y1="33.2969" y2="33.2969"/><text fill="#000000" font-family="Verdana" font-size="14" font-weight="bold" lengthAdjust="spacing" textLength="87.418" x="634" y="25.9951">Scheduling</text></g><!--cluster ETL & Processing--><g class="cluster" data-entity="ETL . Processing" data-source-line="15" data-uid="ent0009" id="cluster_ETL . Processing"><path d="M607.5,157.3 L744.5215,157.3 A3.75,3.75 0 0 1 747.0215,159.8 L754.0215,179.5969 L1099.5,179.5969 A2.5,2.5 0 0 1 1102,182.0969 L1102,411.89 A2.5,2.5 0 0 1 1099.5,414.39 L607.5,414.39 A2.5,2.5 0 0 1 605,411.89 L605,159.8 A2.5,2.5 0 0 1 607.5,157.3" fill="#FFFFFF" style="stroke:#000000;stroke-width:1;"/><line style="stroke:#000000;stroke-width:1;" x1="605" x2="754.0215" y1="179.5969" y2="179.5969"/><text fill="#000000" font-family="Verdana" font-size="14" font-weight="bold" lengthAdjust="spacing" textLength="136.0215" x="609" y="172.2951">ETL &amp; Processing</text></g><!--cluster Data & Viz--><g class="cluster" data-entity="Data . Viz" data-source-line="21" data-uid="ent0013" id="cluster_Data . Viz"><path d="M1129.5,317.1 L1213.4473,317.1 A3.75,3.75 0 0 1 1215.9473,319.6 L1222.9473,339.3969 L1363.5,339.3969 A2.5,2.5 0 0 1 1366,341.8969 L1366,537.19 A2.5,2.5 0 0 1 1363.5,539.69 L1129.5,539.69 A2.5,2.5 0 0 1 1127,537.19 L1127,319.6 A2.5,2.5 0 0 1 1129.5,317.1" fill="#FFFFFF" style="stroke:#000000;stroke-width:1;"/><line style="stroke:#000000;stroke-width:1;" x1="1127" x2="1222.9473" y1="339.3969" y2="339.3969"/><text fill="#000000" font-family="Verdana" font-size="14" font-weight="bold" lengthAdjust="spacing" textLength="82.9473" x="1131" y="332.0951">Data &amp; Viz</text></g><!--entity Personas--><g class="entity" data-entity="Personas" data-source-line="6" data-uid="ent0004" id="entity_Personas"><rect fill="#FFFFFF" height="46.2969" rx="2.5" ry="2.5" style="stroke:#000000;stroke-width:1;" width="168.0098" x="202" y="352.1"/><rect fill="#FFFFFF" height="10" style="stroke:#000000;stroke-width:1;" width="15" x="350.0098" y="357.1"/><rect fill="#FFFFFF" height="2" style="stroke:#000000;stroke-width:1;" width="4" x="348.0098" y="359.1"/><rect fill="#FFFFFF" height="2" style="stroke:#000000;stroke-width:1;" width="4" x="348.0098" y="363.1"/><text fill="#000000" font-family="Verdana" font-size="14" lengthAdjust="spacing" textLength="128.0098" x="217" y="385.0951">USCB Persona List</text></g><!--entity IAM--><g class="entity" data-entity="IAM" data-source-line="7" data-uid="ent0005" id="entity_IAM"><rect fill="#FFFFFF" height="46.2969" rx="2.5" ry="2.5" style="stroke:#000000;stroke-width:1;" width="159.9775" x="405.01" y="352.1"/><rect fill="#FFFFFF" height="10" style="stroke:#000000;stroke-width:1;" width="15" x="544.9875" y="357.1"/><rect fill="#FFFFFF" height="2" style="stroke:#000000;stroke-width:1;" width="4" x="542.9875" y="359.1"/><rect fill="#FFFFFF" height="2" style="stroke:#000000;stroke-width:1;" width="4" x="542.9875" y="363.1"/><text fill="#000000" font-family="Verdana" font-size="14" lengthAdjust="spacing" textLength="119.9775" x="420.01" y="385.0951">IAM App Registry</text></g><!--entity HR--><g class="entity" data-entity="HR" data-source-line="8" data-uid="ent0006" id="entity_HR"><rect fill="#FFFFFF" height="46.2969" rx="2.5" ry="2.5" style="stroke:#000000;stroke-width:1;" width="140.8096" x="26.6" y="352.1"/><rect fill="#FFFFFF" height="10" style="stroke:#000000;stroke-width:1;" width="15" x="147.4096" y="357.1"/><rect fill="#FFFFFF" height="2" style="stroke:#000000;stroke-width:1;" width="4" x="145.4096" y="359.1"/><rect fill="#FFFFFF" height="2" style="stroke:#000000;stroke-width:1;" width="4" x="145.4096" y="363.1"/><text fill="#000000" font-family="Verdana" font-size="14" lengthAdjust="spacing" textLength="100.8096" x="41.6" y="385.0951">HR Headcount</text></g><!--entity Scheduler--><g class="entity" data-entity="Scheduler" data-source-line="12" data-uid="ent0008" id="entity_Scheduler"><rect fill="#FFFFFF" height="46.2969" rx="2.5" ry="2.5" style="stroke:#000000;stroke-width:1;" width="165.8906" x="646.05" y="46"/><rect fill="#FFFFFF" height="10" style="stroke:#000000;stroke-width:1;" width="15" x="791.9406" y="51"/><rect fill="#FFFFFF" height="2" style="stroke:#000000;stroke-width:1;" width="4" x="789.9406" y="53"/><rect fill="#FFFFFF" height="2" style="stroke:#000000;stroke-width:1;" width="4" x="789.9406" y="57"/><text fill="#000000" font-family="Verdana" font-size="14" lengthAdjust="spacing" textLength="125.8906" x="661.05" y="78.9951">Weekly Scheduler</text></g><!--entity MappingService--><g class="entity" data-entity="MappingService" data-source-line="16" data-uid="ent0010" id="entity_MappingService"><rect fill="#FFFFFF" height="46.2969" rx="2.5" ry="2.5" style="stroke:#000000;stroke-width:1;" width="216.8457" x="620.58" y="192.3"/><rect fill="#FFFFFF" height="10" style="stroke:#000000;stroke-width:1;" width="15" x="817.4257" y="197.3"/><rect fill="#FFFFFF" height="2" style="stroke:#000000;stroke-width:1;" width="4" x="815.4257" y="199.3"/><rect fill="#FFFFFF" height="2" style="stroke:#000000;stroke-width:1;" width="4" x="815.4257" y="203.3"/><text fill="#000000" font-family="Verdana" font-size="14" lengthAdjust="spacing" textLength="176.8457" x="635.58" y="225.2951">Persona Mapping Service</text></g><!--entity PythonScript--><g class="entity" data-entity="PythonScript" data-source-line="17" data-uid="ent0011" id="entity_PythonScript"><rect fill="#FFFFFF" height="46.2969" rx="2.5" ry="2.5" style="stroke:#000000;stroke-width:1;" width="213.3457" x="872.33" y="192.3"/><rect fill="#FFFFFF" height="10" style="stroke:#000000;stroke-width:1;" width="15" x="1065.6757" y="197.3"/><rect fill="#FFFFFF" height="2" style="stroke:#000000;stroke-width:1;" width="4" x="1063.6757" y="199.3"/><rect fill="#FFFFFF" height="2" style="stroke:#000000;stroke-width:1;" width="4" x="1063.6757" y="203.3"/><text fill="#000000" font-family="Verdana" font-size="14" lengthAdjust="spacing" textLength="173.3457" x="887.33" y="225.2951">Python Processing Script</text></g><!--entity Staging--><g class="entity" data-entity="Staging" data-source-line="18" data-uid="ent0012" id="entity_Staging"><rect fill="#FFFFFF" height="46.2969" rx="2.5" ry="2.5" style="stroke:#000000;stroke-width:1;" width="146.3262" x="863.84" y="352.1"/><rect fill="#FFFFFF" height="10" style="stroke:#000000;stroke-width:1;" width="15" x="990.1662" y="357.1"/><rect fill="#FFFFFF" height="2" style="stroke:#000000;stroke-width:1;" width="4" x="988.1662" y="359.1"/><rect fill="#FFFFFF" height="2" style="stroke:#000000;stroke-width:1;" width="4" x="988.1662" y="363.1"/><text fill="#000000" font-family="Verdana" font-size="14" lengthAdjust="spacing" textLength="106.3262" x="878.84" y="385.0951">Staging Bucket</text></g><!--entity MappedData--><g class="entity" data-entity="MappedData" data-source-line="22" data-uid="ent0014" id="entity_MappedData"><rect fill="#FFFFFF" height="46.2969" rx="2.5" ry="2.5" style="stroke:#000000;stroke-width:1;" width="194.3828" x="1142.81" y="352.1"/><rect fill="#FFFFFF" height="10" style="stroke:#000000;stroke-width:1;" width="15" x="1317.1928" y="357.1"/><rect fill="#FFFFFF" height="2" style="stroke:#000000;stroke-width:1;" width="4" x="1315.1928" y="359.1"/><rect fill="#FFFFFF" height="2" style="stroke:#000000;stroke-width:1;" width="4" x="1315.1928" y="363.1"/><text fill="#000000" font-family="Verdana" font-size="14" lengthAdjust="spacing" textLength="154.3828" x="1157.81" y="385.0951">Mapped Persona Data</text></g><!--entity Tableau--><g class="entity" data-entity="Tableau" data-source-line="23" data-uid="ent0015" id="entity_Tableau"><rect fill="#FFFFFF" height="46.2969" rx="2.5" ry="2.5" style="stroke:#000000;stroke-width:1;" width="146.333" x="1142.83" y="477.39"/><rect fill="#FFFFFF" height="10" style="stroke:#000000;stroke-width:1;" width="15" x="1269.163" y="482.39"/><rect fill="#FFFFFF" height="2" style="stroke:#000000;stroke-width:1;" width="4" x="1267.163" y="484.39"/><rect fill="#FFFFFF" height="2" style="stroke:#000000;stroke-width:1;" width="4" x="1267.163" y="488.39"/><text fill="#000000" font-family="Verdana" font-size="14" lengthAdjust="spacing" textLength="106.333" x="1157.83" y="510.3851">Tableau Server</text></g><!--entity Developer--><g class="entity" data-entity="Developer" data-source-line="3" data-uid="ent0002" id="entity_Developer"><ellipse cx="212.0015" cy="185.8" fill="#FFFFFF" rx="8" ry="8" style="stroke:#000000;stroke-width:1;"/><path d="M212.0015,193.8 L212.0015,220.8 M199.0015,201.8 L225.0015,201.8 M212.0015,220.8 L199.0015,235.8 M212.0015,220.8 L225.0015,235.8" fill="none" style="stroke:#000000;stroke-width:1;"/><text fill="#000000" font-family="Verdana" font-size="14" lengthAdjust="spacing" textLength="72.0029" x="176" y="250.7951">Developer</text></g><!--link Scheduler to MappingService--><g class="link" data-entity-1="Scheduler" data-entity-2="MappingService" data-source-line="27" data-uid="lnk16" id="link_Scheduler_MappingService"><path d="M729,92.7 C729,119.81 729,159.02 729,186.06" fill="none" id="Scheduler-to-MappingService" style="stroke:#000000;stroke-width:1;"/><polygon fill="#000000" points="729,192.06,733,183.06,729,187.06,725,183.06,729,192.06" style="stroke:#000000;stroke-width:1;"/><text fill="#000000" font-family="Verdana" font-size="13" lengthAdjust="spacing" textLength="92.6187" x="730" y="137.3669">invoke weekly</text></g><!--link Developer to Personas--><g class="link" data-entity-1="Developer" data-entity-2="Personas" data-source-line="30" data-uid="lnk17" id="link_Developer_Personas"><path d="M203.83,254.4 C202.3,269.48 202.79,286.64 209,301.1 C217.8,321.6 230.7598,335.356 246.9698,348.076" fill="none" id="Developer-to-Personas" style="stroke:#000000;stroke-width:1;"/><polygon fill="#000000" points="251.69,351.78,247.079,343.0772,247.7565,348.6934,242.1403,349.3709,251.69,351.78" style="stroke:#000000;stroke-width:1;"/><text fill="#000000" font-family="Verdana" font-size="13" lengthAdjust="spacing" textLength="74.9785" x="210" y="297.1669">upload files</text></g><!--link Developer to IAM--><g class="link" data-entity-1="Developer" data-entity-2="IAM" data-source-line="31" data-uid="lnk18" id="link_Developer_IAM"><path d="M248.47,219.55 C295.42,225.23 377.45,240.98 432,284.1 C454.22,301.66 466.8112,325.7193 475.0012,346.1893" fill="none" id="Developer-to-IAM" style="stroke:#000000;stroke-width:1;"/><polygon fill="#000000" points="477.23,351.76,477.6006,341.9181,475.3727,347.1178,470.173,344.8899,477.23,351.76" style="stroke:#000000;stroke-width:1;"/><text fill="#000000" font-family="Verdana" font-size="13" lengthAdjust="spacing" textLength="74.9785" x="448" y="297.1669">upload files</text></g><!--link Developer to HR--><g class="link" data-entity-1="Developer" data-entity-2="HR" data-source-line="32" data-uid="lnk19" id="link_Developer_HR"><path d="M175.73,235.04 C156.47,246.67 133.97,263.39 120,284.1 C106.27,304.45 101.4266,326.4594 99.1966,345.8194" fill="none" id="Developer-to-HR" style="stroke:#000000;stroke-width:1;"/><polygon fill="#000000" points="98.51,351.78,103.5136,343.2968,99.0821,346.8128,95.5661,342.3814,98.51,351.78" style="stroke:#000000;stroke-width:1;"/><text fill="#000000" font-family="Verdana" font-size="13" lengthAdjust="spacing" textLength="74.9785" x="121" y="297.1669">upload files</text></g><!--link MappingService to Personas--><g class="link" data-entity-1="MappingService" data-entity-2="Personas" data-source-line="35" data-uid="lnk20" id="link_MappingService_Personas"><path d="M681.34,239.1 C632.83,261.73 560.67,294.15 531,301.1 C469.02,315.6 448.58,289.55 388,309.1 C360,318.13 336.874,333.1095 317.354,348.1395" fill="none" id="MappingService-to-Personas" style="stroke:#000000;stroke-width:1;"/><polygon fill="#000000" points="312.6,351.8,322.1714,349.4786,316.5617,348.7496,317.2907,343.1399,312.6,351.8" style="stroke:#000000;stroke-width:1;"/><text fill="#000000" font-family="Verdana" font-size="13" lengthAdjust="spacing" textLength="156.5396" x="580" y="297.1669">load persona definitions</text></g><!--link MappingService to IAM--><g class="link" data-entity-1="MappingService" data-entity-2="IAM" data-source-line="36" data-uid="lnk21" id="link_MappingService_IAM"><path d="M742.88,238.81 C752.72,257.8 761.65,284.54 746,301.1 C735.22,312.5 620.09,304.8 605,309.1 C573.19,318.14 545.4618,333.4172 522.2118,348.4172" fill="none" id="MappingService-to-IAM" style="stroke:#000000;stroke-width:1;"/><polygon fill="#000000" points="517.17,351.67,526.9012,350.152,521.3715,348.9594,522.5642,343.4297,517.17,351.67" style="stroke:#000000;stroke-width:1;"/><text fill="#000000" font-family="Verdana" font-size="13" lengthAdjust="spacing" textLength="110.1064" x="754" y="297.1669">load IAM registry</text></g><!--link MappingService to HR--><g class="link" data-entity-1="MappingService" data-entity-2="HR" data-source-line="37" data-uid="lnk22" id="link_MappingService_HR"><path d="M620.16,224.84 C536.6,233.57 419.28,250.84 321,284.1 C305.75,289.26 304.47,296.61 289,301.1 C244.05,314.13 227.81,292.64 184,309.1 C159.45,318.32 140.3496,332.704 123.9596,347.604" fill="none" id="MappingService-to-HR" style="stroke:#000000;stroke-width:1;"/><polygon fill="#000000" points="119.52,351.64,128.8702,348.5457,123.2197,348.2766,123.4888,342.6262,119.52,351.64" style="stroke:#000000;stroke-width:1;"/><text fill="#000000" font-family="Verdana" font-size="13" lengthAdjust="spacing" textLength="101.0483" x="322" y="297.1669">load headcount</text></g><!--link MappingService to MappedData--><g class="link" data-entity-1="MappingService" data-entity-2="MappedData" data-source-line="38" data-uid="lnk23" id="link_MappingService_MappedData"><path d="M798.19,239.03 C816.52,244.48 836.4,249.94 855,254.1 C942.29,273.61 969.07,256.05 1054,284.1 C1069.29,289.15 1071.61,293.86 1086,301.1 C1120.91,318.65 1155.3225,335.0136 1185.7425,349.2036" fill="none" id="MappingService-to-MappedData" style="stroke:#000000;stroke-width:1;"/><polygon fill="#000000" points="1191.18,351.74,1184.7147,344.3103,1186.6487,349.6263,1181.3328,351.5604,1191.18,351.74" style="stroke:#000000;stroke-width:1;"/><text fill="#000000" font-family="Verdana" font-size="13" lengthAdjust="spacing" textLength="147.126" x="1087" y="297.1669">write matched records</text></g><!--link MappedData to PythonScript--><g class="link" data-entity-1="MappedData" data-entity-2="PythonScript" data-source-line="41" data-uid="lnk24" id="link_MappedData_PythonScript"><path d="M1248.09,351.79 C1253.7,331.9 1257.79,303.15 1243,284.1 C1223.31,258.73 1156.1866,242.2368 1091.9066,231.4068" fill="none" id="MappedData-to-PythonScript" style="stroke:#000000;stroke-width:1;"/><polygon fill="#000000" points="1085.99,230.41,1094.2004,235.8497,1090.9205,231.2407,1095.5295,227.9609,1085.99,230.41" style="stroke:#000000;stroke-width:1;"/><text fill="#000000" font-family="Verdana" font-size="13" lengthAdjust="spacing" textLength="264.6465" x="1252" y="297.1669">enrich &amp; compute missing/excess/match</text></g><!--link PythonScript to Staging--><g class="link" data-entity-1="PythonScript" data-entity-2="Staging" data-source-line="42" data-uid="lnk25" id="link_PythonScript_Staging"><path d="M959.25,238.8 C949.6,251.22 939.02,267.49 934,284.1 C927.25,306.43 928.425,327.3849 931.385,345.9449" fill="none" id="PythonScript-to-Staging" style="stroke:#000000;stroke-width:1;"/><polygon fill="#000000" points="932.33,351.87,934.8626,342.3523,931.5425,346.9324,926.9625,343.6123,932.33,351.87" style="stroke:#000000;stroke-width:1;"/><text fill="#000000" font-family="Verdana" font-size="13" lengthAdjust="spacing" textLength="114.5435" x="935" y="297.1669">write raw outputs</text></g><!--link Staging to MappedData--><g class="link" data-entity-1="Staging" data-entity-2="MappedData" data-source-line="43" data-uid="lnk26" id="link_Staging_MappedData"><path d="M1010.35,375.24 C1050.02,375.24 1093.53,375.24 1136.42,375.24" fill="none" id="Staging-to-MappedData" style="stroke:#000000;stroke-width:1;"/><polygon fill="#000000" points="1142.42,375.24,1133.42,371.24,1137.42,375.24,1133.42,379.24,1142.42,375.24" style="stroke:#000000;stroke-width:1;"/><text fill="#000000" font-family="Verdana" font-size="13" lengthAdjust="spacing" textLength="96.1226" x="1028.49" y="368.3069">transform/load</text></g><!--link MappedData to Tableau--><g class="link" data-entity-1="MappedData" data-entity-2="Tableau" data-source-line="46" data-uid="lnk27" id="link_MappedData_Tableau"><path d="M1235.6,398.86 C1231.27,421.11 1225.8361,448.9805 1221.5161,471.1805" fill="none" id="MappedData-to-Tableau" style="stroke:#000000;stroke-width:1;"/><polygon fill="#000000" points="1220.37,477.07,1226.0155,468.9998,1221.3251,472.1621,1218.1628,467.4717,1220.37,477.07" style="stroke:#000000;stroke-width:1;"/><text fill="#000000" font-family="Verdana" font-size="13" lengthAdjust="spacing" textLength="170.6694" x="1230" y="443.4569">weekly extract &amp; visualize</text></g><!--SRC=[VLAnRjim4Dtv5LSFyHHupn0WgGkuG084Lj8EHGUQEaciPP8WAJjEqN_laI9bIpQoYNVlthrtUbzyWpi4qtAf6EF2QmjBt6Eh3Lh631TRNYFC2jrPWL1Gdzup-Ci0XDuPhL1vcBqLNn_X1QtJYiEJT7u6tEM26sE_Fpp3Wp6mnfg0zXYXL1oZLcjO8I-5xbHFjbgpV-U2H8DbrqfLzs9-_KJSjaT8TRI_mz3m6ir-Uts26tYnMg1p0yFPykpacHj3VIZGxgN0g2FLKcaoT_IDLcVC9C1AawuHctrXF5PuNWVmOoUss8DJQIHxoJqdtJ_anuNW80hBuGy4v20Mo_0Sur_vfaNUHMDe8pILmiRvwMxWhQnheeL3VzzTEiaVlPcp4-pszdvo6RW3gVPwYsaoqlOf8X0wBxMQio5haI47XcOxqsfUGYLRT1DK2D2d0ChEf4-xrnGaIL7F1gfM7-PiedaY8ZAOTDGIAwbaaEskZVMguaJuj2dTrw1HNqGsEUBNOAUVH_23bJw8z-7an2wqBQEl9NfE7addANKtuFhyz0OJIJHt5a9YHMMbQ0WVij651J8oBF0zS2tYFZOQ2Ymvi5cMvGVGdIS6ntBlme6tNBbAszqYM8_IkMiscjlWfxBecWkvEQTtENxuJZJ2a-AzT1rlvGV-1m00]--></g></svg>